<svg xmlns="http://www.w3.org/2000/svg" x="0px" y="0px"
width="64" height="64"
viewBox="0 0 172 172"
style=" fill:#000000;"><defs><linearGradient x1="60.43919" y1="62.26131" x2="60.43919" y2="110.27619" gradientUnits="userSpaceOnUse" id="color-1_48179_gr1"><stop offset="0" stop-color="#ff9f70"></stop><stop offset="1" stop-color="#8b28b6"></stop></linearGradient><linearGradient x1="92.13825" y1="18.8125" x2="92.13825" y2="153.639" gradientUnits="userSpaceOnUse" id="color-2_48179_gr2"><stop offset="0" stop-color="#ff5300"></stop><stop offset="1" stop-color="#45145a"></stop></linearGradient><linearGradient x1="92.31563" y1="18.8125" x2="92.31563" y2="153.639" gradientUnits="userSpaceOnUse" id="color-3_48179_gr3"><stop offset="0" stop-color="#ff5300"></stop><stop offset="1" stop-color="#45145a"></stop></linearGradient></defs><g fill="none" fill-rule="nonzero" stroke="none" stroke-width="1" stroke-linecap="butt" stroke-linejoin="miter" stroke-miterlimit="10" stroke-dasharray="" stroke-dashoffset="0" font-family="none" font-weight="none" font-size="none" text-anchor="none" style="mix-blend-mode: normal"><path d="M0,172v-172h172v172z" fill="none"></path><g><path d="M102.05512,81.47694l-30.83638,-16.63831c-1.80331,-0.97556 -4.03125,0.27412 -4.03125,2.26019v10.83869c0,1.4835 -1.204,2.6875 -2.6875,2.6875h-45.6875c-1.4835,0 -2.6875,1.204 -2.6875,2.6875v5.375c0,1.4835 1.204,2.6875 2.6875,2.6875h45.6875c1.4835,0 2.6875,1.204 2.6875,2.6875v10.83869c0,1.98337 2.22794,3.23306 4.02856,2.26019l30.83638,-16.63831c3.60125,-1.94038 3.60125,-7.10575 0.00269,-9.04612z" fill="url(#color-1_48179_gr1)"></path><path d="M91.375,150.5c-30.00325,0 -56.48856,-21.22856 -62.97081,-50.47662l5.246,-1.16638c5.94475,26.8105 30.22094,46.268 57.72481,46.268c32.60206,0 59.125,-26.52294 59.125,-59.125c0,-32.60206 -26.52294,-59.125 -59.125,-59.125c-27.50388,0 -51.78006,19.4575 -57.72481,46.268l-5.246,-1.16638c6.48225,-29.24806 32.96756,-50.47662 62.97081,-50.47662c35.56369,0 64.5,28.93631 64.5,64.5c0,35.56369 -28.93631,64.5 -64.5,64.5z" fill="url(#color-2_48179_gr2)"></path><path d="M91.375,139.75c-24.19556,0 -45.52356,-16.28894 -51.86875,-39.60569l5.18687,-1.41094c5.70825,20.984 24.90506,35.64163 46.68188,35.64163c26.67344,0 48.375,-21.70156 48.375,-48.375c0,-26.67344 -21.70156,-48.375 -48.375,-48.375c-21.77681,0 -40.97363,14.65763 -46.68456,35.64431l-5.18688,-1.41094c6.34788,-23.31944 27.67856,-39.60837 51.87144,-39.60837c29.63775,0 53.75,24.11225 53.75,53.75c0,29.63775 -24.11225,53.75 -53.75,53.75z" fill="url(#color-3_48179_gr3)"></path></g></g></svg>